G75*
%MOIN*%
%OFA0B0*%
%FSLAX25Y25*%
%IPPOS*%
%LPD*%
%AMOC8*
5,1,8,0,0,1.08239X$1,22.5*
%
%ADD10OC8,0.05200*%
%ADD11R,0.05150X0.05150*%
%ADD12C,0.07600*%
%ADD13C,0.05200*%
%ADD14C,0.01000*%
%ADD15C,0.04000*%
D10*
X0351800Y0076800D03*
X0351800Y0096800D03*
X0351800Y0216800D03*
X0351800Y0256800D03*
D11*
X0293965Y0195215D03*
X0283965Y0195215D03*
X0273965Y0195215D03*
X0263965Y0195215D03*
X0253965Y0195215D03*
X0243965Y0195215D03*
X0233965Y0195215D03*
X0223965Y0195215D03*
X0213965Y0195215D03*
X0203965Y0195215D03*
X0193965Y0195215D03*
X0183965Y0195215D03*
X0173965Y0195215D03*
X0163965Y0195215D03*
X0153965Y0195215D03*
X0143965Y0195215D03*
X0133965Y0195215D03*
X0123965Y0195215D03*
X0113965Y0195215D03*
X0103965Y0195215D03*
X0103965Y0132715D03*
X0113965Y0132715D03*
X0123965Y0132715D03*
X0133965Y0132715D03*
X0143965Y0132715D03*
X0153965Y0132715D03*
X0163965Y0132715D03*
X0173965Y0132715D03*
X0183965Y0132715D03*
X0193965Y0132715D03*
X0203965Y0132715D03*
X0213965Y0132715D03*
X0223965Y0132715D03*
X0233965Y0132715D03*
X0243965Y0132715D03*
X0253965Y0132715D03*
X0263965Y0132715D03*
X0273965Y0132715D03*
X0283965Y0132715D03*
X0293965Y0132715D03*
D12*
X0292942Y0041800D03*
X0306721Y0041800D03*
X0320501Y0041800D03*
X0334280Y0041800D03*
X0348060Y0041800D03*
X0361839Y0041800D03*
X0279162Y0041800D03*
X0265383Y0041800D03*
X0251603Y0041800D03*
X0237824Y0041800D03*
X0224044Y0041800D03*
X0210265Y0041800D03*
X0196485Y0041800D03*
X0182706Y0041800D03*
X0168926Y0041800D03*
X0155146Y0041800D03*
X0141367Y0041800D03*
X0127587Y0041800D03*
X0113808Y0041800D03*
X0100028Y0041800D03*
X0086249Y0041800D03*
X0072469Y0041800D03*
X0058690Y0041800D03*
X0044910Y0041800D03*
X0049300Y0114733D03*
X0049300Y0128513D03*
X0049300Y0142292D03*
X0049300Y0156072D03*
X0049300Y0169851D03*
X0049300Y0183631D03*
X0049300Y0197410D03*
X0049300Y0211190D03*
X0044910Y0286800D03*
X0058690Y0286800D03*
X0072469Y0286800D03*
X0086249Y0286800D03*
X0100028Y0286800D03*
X0113808Y0286800D03*
X0127587Y0286800D03*
X0141367Y0286800D03*
X0155146Y0286800D03*
X0168926Y0286800D03*
X0182706Y0286800D03*
X0196485Y0286800D03*
X0210265Y0286800D03*
X0224044Y0286800D03*
X0237824Y0286800D03*
X0251603Y0286800D03*
X0265383Y0286800D03*
X0279162Y0286800D03*
X0292942Y0286800D03*
X0306721Y0286800D03*
X0320501Y0286800D03*
X0334280Y0286800D03*
X0348060Y0286800D03*
X0361839Y0286800D03*
D13*
X0336800Y0259400D02*
X0336800Y0254200D01*
X0326800Y0254200D02*
X0326800Y0259400D01*
X0316800Y0259400D02*
X0316800Y0254200D01*
X0301800Y0254200D02*
X0301800Y0259400D01*
X0291800Y0259400D02*
X0291800Y0254200D01*
X0281800Y0254200D02*
X0281800Y0259400D01*
X0266800Y0259400D02*
X0266800Y0254200D01*
X0256800Y0254200D02*
X0256800Y0259400D01*
X0246800Y0259400D02*
X0246800Y0254200D01*
X0231800Y0254200D02*
X0231800Y0259400D01*
X0221800Y0259400D02*
X0221800Y0254200D01*
X0211800Y0254200D02*
X0211800Y0259400D01*
X0196800Y0259400D02*
X0196800Y0254200D01*
X0186800Y0254200D02*
X0186800Y0259400D01*
X0176800Y0259400D02*
X0176800Y0254200D01*
X0161800Y0254200D02*
X0161800Y0259400D01*
X0151800Y0259400D02*
X0151800Y0254200D01*
X0141800Y0254200D02*
X0141800Y0259400D01*
X0126800Y0259400D02*
X0126800Y0254200D01*
X0116800Y0254200D02*
X0116800Y0259400D01*
X0106800Y0259400D02*
X0106800Y0254200D01*
X0091800Y0254200D02*
X0091800Y0259400D01*
X0081800Y0259400D02*
X0081800Y0254200D01*
X0071800Y0254200D02*
X0071800Y0259400D01*
X0071800Y0229400D02*
X0071800Y0224200D01*
X0081800Y0224200D02*
X0081800Y0229400D01*
X0091800Y0229400D02*
X0091800Y0224200D01*
X0106800Y0224200D02*
X0106800Y0229400D01*
X0116800Y0229400D02*
X0116800Y0224200D01*
X0126800Y0224200D02*
X0126800Y0229400D01*
X0141800Y0229400D02*
X0141800Y0224200D01*
X0151800Y0224200D02*
X0151800Y0229400D01*
X0161800Y0229400D02*
X0161800Y0224200D01*
X0176800Y0224200D02*
X0176800Y0229400D01*
X0186800Y0229400D02*
X0186800Y0224200D01*
X0196800Y0224200D02*
X0196800Y0229400D01*
X0211800Y0229400D02*
X0211800Y0224200D01*
X0221800Y0224200D02*
X0221800Y0229400D01*
X0231800Y0229400D02*
X0231800Y0224200D01*
X0246800Y0224200D02*
X0246800Y0229400D01*
X0256800Y0229400D02*
X0256800Y0224200D01*
X0266800Y0224200D02*
X0266800Y0229400D01*
X0281800Y0229400D02*
X0281800Y0224200D01*
X0291800Y0224200D02*
X0291800Y0229400D01*
X0301800Y0229400D02*
X0301800Y0224200D01*
X0316800Y0224200D02*
X0316800Y0229400D01*
X0326800Y0229400D02*
X0326800Y0224200D01*
X0336800Y0224200D02*
X0336800Y0229400D01*
X0344200Y0196800D02*
X0349400Y0196800D01*
X0349400Y0186800D02*
X0344200Y0186800D01*
X0344200Y0176800D02*
X0349400Y0176800D01*
X0349400Y0151800D02*
X0344200Y0151800D01*
X0344200Y0141800D02*
X0349400Y0141800D01*
X0349400Y0131800D02*
X0344200Y0131800D01*
X0319400Y0131800D02*
X0314200Y0131800D01*
X0314200Y0141800D02*
X0319400Y0141800D01*
X0319400Y0151800D02*
X0314200Y0151800D01*
X0314200Y0176800D02*
X0319400Y0176800D01*
X0319400Y0186800D02*
X0314200Y0186800D01*
X0314200Y0196800D02*
X0319400Y0196800D01*
X0316800Y0104400D02*
X0316800Y0099200D01*
X0326800Y0099200D02*
X0326800Y0104400D01*
X0336800Y0104400D02*
X0336800Y0099200D01*
X0336800Y0074400D02*
X0336800Y0069200D01*
X0326800Y0069200D02*
X0326800Y0074400D01*
X0316800Y0074400D02*
X0316800Y0069200D01*
X0301800Y0069200D02*
X0301800Y0074400D01*
X0291800Y0074400D02*
X0291800Y0069200D01*
X0281800Y0069200D02*
X0281800Y0074400D01*
X0266800Y0074400D02*
X0266800Y0069200D01*
X0256800Y0069200D02*
X0256800Y0074400D01*
X0246800Y0074400D02*
X0246800Y0069200D01*
X0231800Y0069200D02*
X0231800Y0074400D01*
X0221800Y0074400D02*
X0221800Y0069200D01*
X0211800Y0069200D02*
X0211800Y0074400D01*
X0196800Y0074400D02*
X0196800Y0069200D01*
X0186800Y0069200D02*
X0186800Y0074400D01*
X0176800Y0074400D02*
X0176800Y0069200D01*
X0161800Y0069200D02*
X0161800Y0074400D01*
X0151800Y0074400D02*
X0151800Y0069200D01*
X0141800Y0069200D02*
X0141800Y0074400D01*
X0126800Y0074400D02*
X0126800Y0069200D01*
X0116800Y0069200D02*
X0116800Y0074400D01*
X0106800Y0074400D02*
X0106800Y0069200D01*
X0091800Y0069200D02*
X0091800Y0074400D01*
X0081800Y0074400D02*
X0081800Y0069200D01*
X0071800Y0069200D02*
X0071800Y0074400D01*
X0071800Y0099200D02*
X0071800Y0104400D01*
X0081800Y0104400D02*
X0081800Y0099200D01*
X0091800Y0099200D02*
X0091800Y0104400D01*
X0106800Y0104400D02*
X0106800Y0099200D01*
X0116800Y0099200D02*
X0116800Y0104400D01*
X0126800Y0104400D02*
X0126800Y0099200D01*
X0141800Y0099200D02*
X0141800Y0104400D01*
X0151800Y0104400D02*
X0151800Y0099200D01*
X0161800Y0099200D02*
X0161800Y0104400D01*
X0176800Y0104400D02*
X0176800Y0099200D01*
X0186800Y0099200D02*
X0186800Y0104400D01*
X0196800Y0104400D02*
X0196800Y0099200D01*
X0211800Y0099200D02*
X0211800Y0104400D01*
X0221800Y0104400D02*
X0221800Y0099200D01*
X0231800Y0099200D02*
X0231800Y0104400D01*
X0246800Y0104400D02*
X0246800Y0099200D01*
X0256800Y0099200D02*
X0256800Y0104400D01*
X0266800Y0104400D02*
X0266800Y0099200D01*
X0281800Y0099200D02*
X0281800Y0104400D01*
X0291800Y0104400D02*
X0291800Y0099200D01*
X0301800Y0099200D02*
X0301800Y0104400D01*
X0084400Y0131800D02*
X0079200Y0131800D01*
X0079200Y0141800D02*
X0084400Y0141800D01*
X0084400Y0151800D02*
X0079200Y0151800D01*
X0079200Y0176800D02*
X0084400Y0176800D01*
X0084400Y0186800D02*
X0079200Y0186800D01*
X0079200Y0196800D02*
X0084400Y0196800D01*
D14*
X0039200Y0040100D02*
X0044600Y0034700D01*
X0100400Y0034700D01*
X0108500Y0042800D01*
X0108500Y0044600D01*
X0111200Y0047300D01*
X0149000Y0047300D01*
X0154400Y0041900D01*
X0155146Y0041800D01*
X0155300Y0041000D01*
X0162500Y0041000D01*
X0172400Y0031100D01*
X0293900Y0031100D01*
X0302000Y0039200D01*
X0301100Y0040100D01*
X0301100Y0043700D01*
X0310100Y0052700D01*
X0310100Y0104000D01*
X0323600Y0117500D01*
X0323600Y0153500D01*
X0317300Y0159800D01*
X0317300Y0176000D01*
X0316800Y0176800D01*
X0312800Y0181400D02*
X0294800Y0163400D01*
X0294800Y0132800D01*
X0293965Y0132715D01*
X0288500Y0130100D02*
X0286700Y0128300D01*
X0281300Y0128300D01*
X0278600Y0131000D01*
X0278600Y0135500D01*
X0266000Y0148100D01*
X0137300Y0148100D01*
X0136400Y0142700D02*
X0258800Y0142700D01*
X0260600Y0140900D01*
X0262400Y0144500D02*
X0128300Y0144500D01*
X0118400Y0134600D01*
X0118400Y0130100D01*
X0116600Y0128300D01*
X0101300Y0128300D01*
X0097700Y0131900D01*
X0097700Y0132800D01*
X0098600Y0126500D02*
X0125600Y0126500D01*
X0129200Y0130100D01*
X0129200Y0135500D01*
X0136400Y0142700D01*
X0140000Y0136400D02*
X0140000Y0108500D01*
X0132800Y0101300D01*
X0132800Y0087800D01*
X0116800Y0071800D01*
X0113900Y0065300D02*
X0135500Y0065300D01*
X0141800Y0071600D01*
X0141800Y0071800D01*
X0141800Y0101800D01*
X0147200Y0096800D02*
X0151700Y0101300D01*
X0151800Y0101800D01*
X0147200Y0096800D02*
X0147200Y0068000D01*
X0153500Y0061700D01*
X0200300Y0061700D01*
X0205700Y0056300D01*
X0217400Y0056300D01*
X0230000Y0043700D01*
X0230000Y0041900D01*
X0235400Y0036500D01*
X0281300Y0036500D01*
X0284900Y0040100D01*
X0284900Y0044600D01*
X0295700Y0055400D01*
X0295700Y0106700D01*
X0293900Y0108500D01*
X0280400Y0108500D01*
X0257000Y0131900D01*
X0254300Y0131900D01*
X0253965Y0132715D01*
X0249800Y0131000D02*
X0249800Y0136400D01*
X0250700Y0137300D01*
X0266900Y0137300D01*
X0268700Y0135500D01*
X0268700Y0130100D01*
X0280400Y0118400D01*
X0312800Y0118400D01*
X0316400Y0113000D02*
X0308300Y0104900D01*
X0308300Y0053600D01*
X0298400Y0043700D01*
X0298400Y0039200D01*
X0293000Y0033800D01*
X0292100Y0034700D01*
X0293000Y0033800D02*
X0292100Y0032900D01*
X0191300Y0032900D01*
X0183200Y0041000D01*
X0182706Y0041800D01*
X0191300Y0054500D02*
X0162500Y0054500D01*
X0157100Y0049100D01*
X0107600Y0049100D01*
X0100400Y0041900D01*
X0100028Y0041800D01*
X0099500Y0054500D02*
X0086900Y0041900D01*
X0086249Y0041800D01*
X0080600Y0041900D02*
X0080600Y0043700D01*
X0095000Y0058100D01*
X0194000Y0058100D01*
X0210200Y0041900D01*
X0210265Y0041800D01*
X0215600Y0042800D02*
X0215600Y0043700D01*
X0199400Y0059900D01*
X0110300Y0059900D01*
X0102200Y0068000D01*
X0102200Y0076100D01*
X0121100Y0095000D01*
X0128300Y0095000D01*
X0131000Y0097700D01*
X0131000Y0105800D01*
X0128300Y0108500D01*
X0123800Y0108500D01*
X0117500Y0102200D01*
X0116800Y0101800D01*
X0111200Y0104900D02*
X0111200Y0097700D01*
X0092300Y0078800D01*
X0088700Y0078800D01*
X0082400Y0072500D01*
X0081800Y0071800D01*
X0074300Y0072500D02*
X0102200Y0100400D01*
X0091400Y0111200D01*
X0081500Y0111200D01*
X0072500Y0102200D01*
X0071800Y0101800D01*
X0071600Y0102200D01*
X0061700Y0102200D01*
X0050000Y0113900D01*
X0049300Y0114733D01*
X0049300Y0128513D02*
X0050000Y0129200D01*
X0070700Y0129200D01*
X0077900Y0136400D01*
X0088700Y0136400D01*
X0098600Y0126500D01*
X0111200Y0132800D02*
X0102200Y0141800D01*
X0081800Y0141800D01*
X0085100Y0146300D02*
X0053600Y0146300D01*
X0050000Y0142700D01*
X0049300Y0142292D01*
X0047300Y0150800D02*
X0043700Y0154400D01*
X0043700Y0212900D01*
X0080600Y0249800D01*
X0083300Y0249800D01*
X0087800Y0254300D01*
X0087800Y0266900D01*
X0106700Y0285800D01*
X0106700Y0290300D01*
X0112100Y0295700D01*
X0140000Y0295700D01*
X0149900Y0285800D01*
X0149900Y0284000D01*
X0152600Y0281300D01*
X0171500Y0281300D01*
X0176900Y0286700D01*
X0176900Y0288500D01*
X0187700Y0299300D01*
X0349700Y0299300D01*
X0361400Y0287600D01*
X0361839Y0286800D01*
X0359600Y0281300D02*
X0353300Y0287600D01*
X0353300Y0289400D01*
X0350600Y0292100D01*
X0325400Y0292100D01*
X0320900Y0287600D01*
X0320501Y0286800D01*
X0311900Y0287600D02*
X0311900Y0289400D01*
X0303800Y0297500D01*
X0193100Y0297500D01*
X0183200Y0287600D01*
X0182706Y0286800D01*
X0189500Y0285800D02*
X0189500Y0290300D01*
X0194900Y0295700D01*
X0257000Y0295700D01*
X0265100Y0287600D01*
X0265383Y0286800D01*
X0259700Y0286700D02*
X0259700Y0284900D01*
X0263300Y0281300D01*
X0286700Y0281300D01*
X0292100Y0286700D01*
X0292942Y0286800D01*
X0311900Y0287600D02*
X0330800Y0268700D01*
X0330800Y0254300D01*
X0333500Y0251600D01*
X0333500Y0240800D01*
X0332600Y0239900D01*
X0332600Y0219200D01*
X0325400Y0212000D01*
X0298400Y0212000D01*
X0284000Y0226400D01*
X0282200Y0226400D01*
X0281800Y0226800D01*
X0277700Y0226400D02*
X0277700Y0230900D01*
X0296600Y0249800D01*
X0305600Y0249800D01*
X0306500Y0250700D01*
X0306500Y0256100D02*
X0306500Y0260600D01*
X0302000Y0265100D01*
X0254300Y0265100D01*
X0252500Y0263300D01*
X0248000Y0266900D02*
X0302900Y0266900D01*
X0312800Y0257000D01*
X0312800Y0252500D01*
X0320900Y0244400D01*
X0320900Y0221900D01*
X0319100Y0220100D01*
X0298400Y0220100D01*
X0292100Y0226400D01*
X0291800Y0226800D01*
X0288500Y0219200D02*
X0297500Y0210200D01*
X0329000Y0210200D01*
X0340700Y0221900D01*
X0340700Y0280400D01*
X0334400Y0286700D01*
X0334280Y0286800D01*
X0348060Y0286800D02*
X0348800Y0286700D01*
X0359600Y0275900D01*
X0359600Y0146300D01*
X0347000Y0133700D01*
X0347000Y0131900D01*
X0346800Y0131800D01*
X0346800Y0141800D02*
X0347900Y0141800D01*
X0357800Y0151700D01*
X0357800Y0257000D01*
X0353300Y0261500D01*
X0350600Y0261500D01*
X0347900Y0258800D01*
X0347900Y0226400D01*
X0329900Y0208400D01*
X0289400Y0208400D01*
X0279500Y0198500D01*
X0279500Y0193100D01*
X0270500Y0184100D01*
X0127400Y0184100D01*
X0119300Y0192200D01*
X0119300Y0197600D01*
X0117500Y0199400D01*
X0110300Y0199400D01*
X0106700Y0195800D01*
X0104000Y0195800D01*
X0103965Y0195215D01*
X0098600Y0197600D02*
X0104000Y0203000D01*
X0115700Y0203000D01*
X0113965Y0195215D02*
X0113900Y0194900D01*
X0111200Y0194900D01*
X0103100Y0186800D01*
X0081800Y0186800D01*
X0075200Y0185000D02*
X0081500Y0178700D01*
X0081500Y0176900D01*
X0081800Y0176800D01*
X0075200Y0185000D02*
X0075200Y0221900D01*
X0077900Y0224600D01*
X0077900Y0231800D01*
X0079700Y0233600D01*
X0085100Y0233600D01*
X0091400Y0239900D01*
X0091400Y0248000D01*
X0127400Y0248000D01*
X0127400Y0238100D01*
X0149000Y0238100D01*
X0159800Y0227300D01*
X0161600Y0227300D01*
X0161800Y0226800D01*
X0162500Y0227300D01*
X0168800Y0233600D01*
X0188600Y0233600D01*
X0194900Y0227300D01*
X0196700Y0227300D01*
X0196800Y0226800D01*
X0201200Y0222800D02*
X0201200Y0230900D01*
X0182300Y0249800D01*
X0140000Y0249800D01*
X0131000Y0258800D01*
X0131000Y0261500D01*
X0129200Y0263300D01*
X0123800Y0263300D01*
X0117500Y0257000D01*
X0116800Y0256800D01*
X0107600Y0257000D02*
X0106800Y0256800D01*
X0107600Y0257000D02*
X0107600Y0284000D01*
X0108500Y0284900D01*
X0108500Y0289400D01*
X0113000Y0293900D01*
X0134600Y0293900D01*
X0140900Y0287600D01*
X0141367Y0286800D01*
X0139100Y0281300D02*
X0132800Y0287600D01*
X0132800Y0289400D01*
X0130100Y0292100D01*
X0118400Y0292100D01*
X0113900Y0287600D01*
X0113808Y0286800D01*
X0127587Y0286800D02*
X0128300Y0286700D01*
X0141800Y0273200D01*
X0141800Y0256800D01*
X0127400Y0256100D02*
X0127400Y0248000D01*
X0127400Y0256100D02*
X0126800Y0256800D01*
X0127400Y0238100D02*
X0127400Y0227300D01*
X0126800Y0226800D01*
X0131000Y0229100D02*
X0131000Y0234500D01*
X0131000Y0229100D02*
X0138200Y0221900D01*
X0138200Y0193100D01*
X0140000Y0191300D01*
X0157100Y0191300D01*
X0158000Y0192200D01*
X0158000Y0196700D01*
X0160700Y0199400D01*
X0197600Y0199400D01*
X0201200Y0195800D01*
X0203900Y0195800D01*
X0203965Y0195215D01*
X0205700Y0201200D02*
X0185900Y0201200D01*
X0183200Y0203900D01*
X0183200Y0209300D01*
X0194000Y0220100D01*
X0198500Y0220100D01*
X0201200Y0222800D01*
X0194900Y0218300D02*
X0212000Y0218300D01*
X0216500Y0222800D01*
X0216500Y0230900D01*
X0199400Y0248000D01*
X0194000Y0248000D01*
X0186800Y0255200D01*
X0186800Y0256800D01*
X0191300Y0253400D02*
X0191300Y0260600D01*
X0185900Y0266000D01*
X0196800Y0256800D02*
X0197600Y0257000D01*
X0203000Y0257000D01*
X0209300Y0263300D01*
X0217400Y0263300D01*
X0217400Y0252500D01*
X0231800Y0238100D01*
X0231800Y0226800D01*
X0236300Y0229100D02*
X0236300Y0241700D01*
X0221900Y0256100D01*
X0221800Y0256800D01*
X0225500Y0263300D02*
X0217400Y0263300D01*
X0225500Y0263300D02*
X0231800Y0257000D01*
X0231800Y0256800D01*
X0236300Y0256100D02*
X0236300Y0260600D01*
X0215600Y0281300D01*
X0202100Y0281300D01*
X0196700Y0286700D01*
X0196485Y0286800D01*
X0191300Y0284900D02*
X0191300Y0289400D01*
X0195800Y0293900D01*
X0252500Y0293900D01*
X0259700Y0286700D01*
X0246200Y0285800D02*
X0246200Y0284900D01*
X0260600Y0270500D01*
X0323600Y0270500D01*
X0327200Y0266900D01*
X0322700Y0259700D02*
X0322700Y0248900D01*
X0328100Y0243500D01*
X0330800Y0240800D02*
X0331700Y0241700D01*
X0331700Y0250700D01*
X0326300Y0256100D01*
X0326800Y0256800D01*
X0322700Y0259700D02*
X0313700Y0268700D01*
X0259700Y0268700D01*
X0241700Y0286700D01*
X0238100Y0286700D01*
X0237824Y0286800D01*
X0239900Y0292100D02*
X0235400Y0292100D01*
X0230900Y0287600D01*
X0224600Y0287600D01*
X0224044Y0286800D01*
X0239900Y0292100D02*
X0246200Y0285800D01*
X0248000Y0266900D02*
X0242600Y0261500D01*
X0242600Y0252500D01*
X0250700Y0244400D01*
X0250700Y0221900D01*
X0249800Y0221000D01*
X0249800Y0194000D01*
X0245300Y0189500D01*
X0192200Y0189500D01*
X0186800Y0194900D01*
X0184100Y0194900D01*
X0183965Y0195215D01*
X0176900Y0194900D02*
X0184100Y0187700D01*
X0254300Y0187700D01*
X0257900Y0191300D01*
X0257900Y0225500D01*
X0257000Y0226400D01*
X0256800Y0226800D01*
X0252500Y0222800D02*
X0252500Y0252500D01*
X0256800Y0256800D01*
X0266800Y0256800D02*
X0266900Y0256100D01*
X0266900Y0227300D01*
X0266800Y0226800D01*
X0269600Y0218300D02*
X0277700Y0226400D01*
X0275900Y0227300D02*
X0275900Y0240800D01*
X0291200Y0256100D01*
X0291800Y0256800D01*
X0294800Y0263300D02*
X0301100Y0257000D01*
X0301800Y0256800D01*
X0306500Y0256100D02*
X0316400Y0246200D01*
X0316400Y0227300D01*
X0316800Y0226800D01*
X0323600Y0215600D02*
X0328100Y0220100D01*
X0329000Y0220100D01*
X0330800Y0221900D01*
X0330800Y0240800D01*
X0337100Y0227300D02*
X0336800Y0226800D01*
X0337100Y0227300D02*
X0337100Y0256100D01*
X0336800Y0256800D01*
X0351800Y0256800D02*
X0352400Y0256100D01*
X0352400Y0221900D01*
X0356000Y0218300D01*
X0356000Y0187700D01*
X0349700Y0181400D01*
X0312800Y0181400D01*
X0312800Y0191300D02*
X0288500Y0167000D01*
X0288500Y0130100D01*
X0283965Y0132715D02*
X0284000Y0132800D01*
X0284000Y0172400D01*
X0318200Y0206600D01*
X0341600Y0206600D01*
X0351800Y0216800D01*
X0325400Y0186800D02*
X0320900Y0191300D01*
X0312800Y0191300D01*
X0325400Y0186800D02*
X0346800Y0186800D01*
X0346800Y0176800D02*
X0347000Y0176000D01*
X0347000Y0159800D01*
X0353300Y0153500D01*
X0353300Y0149900D01*
X0349700Y0146300D01*
X0342500Y0146300D01*
X0339800Y0143600D01*
X0339800Y0107600D01*
X0342500Y0104900D01*
X0342500Y0050000D01*
X0334400Y0041900D01*
X0334280Y0041800D01*
X0333500Y0041000D01*
X0311000Y0018500D01*
X0193100Y0018500D01*
X0215600Y0042800D02*
X0223700Y0034700D01*
X0282200Y0034700D01*
X0286700Y0039200D01*
X0286700Y0042800D01*
X0291200Y0047300D01*
X0298400Y0047300D01*
X0306500Y0055400D01*
X0306500Y0076100D01*
X0297500Y0085100D01*
X0297500Y0107600D01*
X0294800Y0110300D01*
X0285800Y0110300D01*
X0264200Y0131900D01*
X0263965Y0132715D01*
X0270500Y0135500D02*
X0273200Y0132800D01*
X0273965Y0132715D01*
X0270500Y0135500D02*
X0270500Y0136400D01*
X0262400Y0144500D01*
X0248000Y0151700D02*
X0090500Y0151700D01*
X0085100Y0146300D01*
X0081800Y0151800D02*
X0081500Y0151700D01*
X0052700Y0151700D01*
X0051800Y0150800D01*
X0047300Y0150800D01*
X0049300Y0156072D02*
X0050000Y0156200D01*
X0245300Y0156200D01*
X0281300Y0192200D01*
X0281300Y0193100D01*
X0283100Y0194900D01*
X0283965Y0195215D01*
X0291200Y0194900D02*
X0248000Y0151700D01*
X0236300Y0140900D02*
X0194900Y0140900D01*
X0188600Y0134600D01*
X0188600Y0104000D01*
X0186800Y0102200D01*
X0186800Y0101800D01*
X0182300Y0104900D02*
X0182300Y0077000D01*
X0186800Y0072500D01*
X0186800Y0071800D01*
X0191300Y0075200D02*
X0191300Y0068000D01*
X0188600Y0065300D01*
X0183200Y0065300D01*
X0176900Y0071600D01*
X0176800Y0071800D01*
X0176900Y0072500D01*
X0176900Y0101300D01*
X0176800Y0101800D01*
X0182300Y0104900D02*
X0178700Y0108500D01*
X0178700Y0135500D01*
X0176900Y0137300D01*
X0171500Y0137300D01*
X0167000Y0132800D01*
X0164300Y0132800D01*
X0163965Y0132715D01*
X0173965Y0132715D02*
X0174200Y0131900D01*
X0174200Y0107600D01*
X0166100Y0099500D01*
X0166100Y0086000D01*
X0152600Y0072500D01*
X0151800Y0071800D01*
X0161800Y0071800D02*
X0162500Y0071600D01*
X0168800Y0071600D01*
X0176900Y0063500D01*
X0208400Y0063500D01*
X0213800Y0058100D01*
X0221000Y0058100D01*
X0237200Y0041900D01*
X0237824Y0041800D01*
X0251600Y0041900D02*
X0251603Y0041800D01*
X0251600Y0041900D02*
X0233600Y0059900D01*
X0214700Y0059900D01*
X0203000Y0071600D01*
X0197600Y0071600D01*
X0196800Y0071800D01*
X0191300Y0075200D02*
X0194900Y0078800D01*
X0198500Y0078800D01*
X0204800Y0072500D01*
X0211100Y0072500D01*
X0211800Y0071800D01*
X0218300Y0065300D01*
X0223700Y0065300D01*
X0226400Y0068000D01*
X0226400Y0075200D01*
X0230000Y0078800D01*
X0233600Y0078800D01*
X0239900Y0072500D01*
X0246200Y0072500D01*
X0246800Y0071800D01*
X0247100Y0072500D01*
X0248900Y0072500D01*
X0255200Y0078800D01*
X0275000Y0078800D01*
X0281300Y0072500D01*
X0281800Y0071800D01*
X0283100Y0080600D02*
X0291200Y0072500D01*
X0291800Y0071800D01*
X0301100Y0071600D02*
X0301800Y0071800D01*
X0301100Y0071600D02*
X0301100Y0055400D01*
X0296600Y0050900D01*
X0306500Y0041900D02*
X0306721Y0041800D01*
X0306500Y0041900D02*
X0336200Y0071600D01*
X0336800Y0071800D01*
X0340700Y0076100D02*
X0340700Y0056300D01*
X0326300Y0041900D01*
X0326300Y0040100D01*
X0308300Y0022100D01*
X0159800Y0022100D01*
X0140000Y0029300D02*
X0128300Y0041000D01*
X0127587Y0041800D01*
X0113900Y0041000D02*
X0113808Y0041800D01*
X0113900Y0041000D02*
X0129200Y0025700D01*
X0227300Y0025700D01*
X0229100Y0029300D02*
X0140000Y0029300D01*
X0157100Y0054500D02*
X0099500Y0054500D01*
X0095900Y0067100D02*
X0076100Y0047300D01*
X0064400Y0047300D01*
X0059000Y0041900D01*
X0058690Y0041800D01*
X0056300Y0036500D02*
X0075200Y0036500D01*
X0080600Y0041900D01*
X0068900Y0049100D02*
X0058100Y0049100D01*
X0052700Y0043700D01*
X0052700Y0040100D01*
X0056300Y0036500D01*
X0045500Y0041900D02*
X0044910Y0041800D01*
X0045500Y0041900D02*
X0045500Y0055400D01*
X0091400Y0101300D01*
X0091800Y0101800D01*
X0102200Y0100400D02*
X0103100Y0101300D01*
X0106700Y0101300D01*
X0106800Y0101800D01*
X0111200Y0104900D02*
X0130100Y0123800D01*
X0136400Y0123800D01*
X0144500Y0131900D02*
X0143965Y0132715D01*
X0144500Y0131900D02*
X0147200Y0131900D01*
X0167000Y0112100D01*
X0170600Y0112100D01*
X0183200Y0132800D02*
X0183965Y0132715D01*
X0183200Y0132800D02*
X0180500Y0135500D01*
X0180500Y0136400D01*
X0177800Y0139100D01*
X0142700Y0139100D01*
X0140000Y0136400D01*
X0113965Y0132715D02*
X0113900Y0132800D01*
X0111200Y0132800D01*
X0081800Y0131800D02*
X0081500Y0131000D01*
X0081500Y0111200D01*
X0095900Y0072500D02*
X0124700Y0101300D01*
X0126500Y0101300D01*
X0126800Y0101800D01*
X0095900Y0072500D02*
X0095900Y0067100D01*
X0091800Y0071800D02*
X0091400Y0071600D01*
X0068900Y0049100D01*
X0071800Y0071800D02*
X0072500Y0072500D01*
X0074300Y0072500D01*
X0106800Y0071800D02*
X0107600Y0071600D01*
X0113900Y0065300D01*
X0039200Y0040100D02*
X0039200Y0211100D01*
X0073400Y0245300D01*
X0067100Y0251600D01*
X0067100Y0289400D01*
X0084200Y0306500D01*
X0225500Y0306500D01*
X0229100Y0302900D01*
X0233600Y0302900D01*
X0223700Y0302900D02*
X0092300Y0302900D01*
X0077000Y0287600D01*
X0072500Y0287600D01*
X0072469Y0286800D01*
X0065300Y0285800D02*
X0065300Y0290300D01*
X0083300Y0308300D01*
X0347900Y0308300D01*
X0367700Y0288500D01*
X0367700Y0284900D01*
X0364100Y0281300D01*
X0359600Y0281300D01*
X0294800Y0263300D02*
X0279500Y0263300D01*
X0273200Y0257000D01*
X0266900Y0257000D01*
X0266800Y0256800D01*
X0246200Y0246200D02*
X0236300Y0256100D01*
X0246200Y0246200D02*
X0246200Y0227300D01*
X0246800Y0226800D01*
X0243500Y0221900D02*
X0236300Y0229100D01*
X0226400Y0230900D02*
X0226400Y0222800D01*
X0224600Y0221000D01*
X0224600Y0195800D01*
X0223965Y0195215D01*
X0227300Y0191300D02*
X0220100Y0191300D01*
X0218300Y0193100D01*
X0218300Y0198500D01*
X0213800Y0203000D01*
X0186800Y0203000D01*
X0185000Y0204800D01*
X0185000Y0208400D01*
X0194900Y0218300D01*
X0186800Y0226400D02*
X0186800Y0226800D01*
X0186800Y0226400D02*
X0185000Y0226400D01*
X0154400Y0195800D01*
X0153965Y0195215D01*
X0144500Y0195800D02*
X0143965Y0195215D01*
X0144500Y0195800D02*
X0144500Y0219200D01*
X0151700Y0226400D01*
X0151800Y0226800D01*
X0133700Y0210200D02*
X0117500Y0226400D01*
X0116800Y0226800D01*
X0107600Y0226400D02*
X0106800Y0226800D01*
X0107600Y0226400D02*
X0107600Y0219200D01*
X0129200Y0197600D01*
X0129200Y0192200D01*
X0135500Y0185900D01*
X0262400Y0185900D01*
X0269600Y0193100D01*
X0269600Y0218300D01*
X0264200Y0215600D02*
X0275900Y0227300D01*
X0275900Y0219200D02*
X0288500Y0219200D01*
X0264200Y0215600D02*
X0264200Y0195800D01*
X0263965Y0195215D01*
X0253965Y0195215D02*
X0253400Y0195800D01*
X0253400Y0221900D01*
X0252500Y0222800D01*
X0243500Y0221900D02*
X0243500Y0195800D01*
X0243965Y0195215D01*
X0233965Y0195215D02*
X0233600Y0194900D01*
X0230900Y0194900D01*
X0227300Y0191300D01*
X0213965Y0195215D02*
X0213800Y0195800D01*
X0211100Y0195800D01*
X0205700Y0201200D01*
X0203000Y0206600D02*
X0221000Y0224600D01*
X0221000Y0226400D01*
X0221800Y0226800D01*
X0226400Y0230900D02*
X0207500Y0249800D01*
X0194900Y0249800D01*
X0191300Y0253400D01*
X0182300Y0252500D02*
X0182300Y0278600D01*
X0189500Y0285800D01*
X0191300Y0284900D02*
X0185900Y0279500D01*
X0185900Y0274100D01*
X0176800Y0256800D02*
X0176000Y0257000D01*
X0170600Y0257000D01*
X0146300Y0281300D01*
X0139100Y0281300D01*
X0154400Y0287600D02*
X0155146Y0286800D01*
X0154400Y0287600D02*
X0144500Y0297500D01*
X0089600Y0297500D01*
X0080600Y0288500D01*
X0080600Y0287600D01*
X0072500Y0279500D01*
X0072500Y0257000D01*
X0071800Y0256800D01*
X0076100Y0259700D02*
X0076100Y0248000D01*
X0073400Y0245300D01*
X0085100Y0233600D02*
X0091400Y0227300D01*
X0091800Y0226800D01*
X0088700Y0220100D02*
X0082400Y0226400D01*
X0081800Y0226800D01*
X0088700Y0220100D02*
X0104000Y0220100D01*
X0123800Y0200300D01*
X0123800Y0195800D01*
X0123965Y0195215D01*
X0133700Y0195800D02*
X0133965Y0195215D01*
X0133700Y0195800D02*
X0133700Y0210200D01*
X0098600Y0197600D02*
X0082400Y0197600D01*
X0081800Y0196800D01*
X0060800Y0172400D02*
X0050000Y0183200D01*
X0049300Y0183631D01*
X0060800Y0172400D02*
X0256100Y0172400D01*
X0291200Y0194900D02*
X0293900Y0194900D01*
X0293965Y0195215D01*
X0342500Y0148100D02*
X0346100Y0151700D01*
X0346800Y0151800D01*
X0342500Y0148100D02*
X0341600Y0148100D01*
X0325400Y0131900D01*
X0325400Y0110300D01*
X0317300Y0102200D01*
X0316800Y0101800D01*
X0317300Y0101300D01*
X0317300Y0072500D01*
X0316800Y0071800D01*
X0337100Y0079700D02*
X0340700Y0076100D01*
X0337100Y0079700D02*
X0337100Y0101300D01*
X0336800Y0101800D01*
X0316400Y0113000D02*
X0316400Y0131000D01*
X0316800Y0131800D01*
X0291800Y0101800D02*
X0291200Y0101300D01*
X0281300Y0091400D01*
X0213800Y0091400D01*
X0207500Y0097700D01*
X0207500Y0105800D01*
X0213800Y0112100D01*
X0213800Y0131900D01*
X0213965Y0132715D01*
X0211100Y0137300D02*
X0237200Y0137300D01*
X0239900Y0134600D01*
X0239900Y0129200D01*
X0240800Y0128300D01*
X0247100Y0128300D01*
X0249800Y0131000D01*
X0243965Y0132715D02*
X0243500Y0132800D01*
X0241700Y0134600D01*
X0241700Y0135500D01*
X0236300Y0140900D01*
X0233965Y0132715D02*
X0233600Y0131900D01*
X0233600Y0113900D01*
X0221900Y0102200D01*
X0221800Y0101800D01*
X0217400Y0105800D02*
X0217400Y0097700D01*
X0220100Y0095000D01*
X0249800Y0095000D01*
X0256100Y0101300D01*
X0256800Y0101800D01*
X0261500Y0105800D02*
X0261500Y0093200D01*
X0219200Y0093200D01*
X0215600Y0096800D01*
X0215600Y0097700D01*
X0212000Y0101300D01*
X0211800Y0101800D01*
X0205700Y0104000D02*
X0202100Y0107600D01*
X0202100Y0115700D01*
X0198500Y0108500D02*
X0203900Y0103100D01*
X0203900Y0089600D01*
X0221000Y0072500D01*
X0221800Y0071800D01*
X0221900Y0080600D02*
X0283100Y0080600D01*
X0273200Y0093200D02*
X0281800Y0101800D01*
X0273200Y0093200D02*
X0261500Y0093200D01*
X0248900Y0102200D02*
X0255200Y0108500D01*
X0258800Y0108500D01*
X0261500Y0105800D01*
X0248900Y0102200D02*
X0247100Y0102200D01*
X0246800Y0101800D01*
X0223700Y0112100D02*
X0217400Y0105800D01*
X0223700Y0112100D02*
X0223700Y0131900D01*
X0223965Y0132715D01*
X0211100Y0137300D02*
X0206600Y0132800D01*
X0204800Y0132800D01*
X0203965Y0132715D01*
X0198500Y0137300D02*
X0198500Y0108500D01*
X0205700Y0104000D02*
X0205700Y0096800D01*
X0221900Y0080600D01*
X0231800Y0071800D02*
X0231800Y0071600D01*
X0235400Y0071600D01*
X0265100Y0041900D01*
X0265383Y0041800D01*
X0266900Y0053600D02*
X0278600Y0041900D01*
X0279162Y0041800D01*
X0266900Y0053600D02*
X0266900Y0071600D01*
X0266800Y0071800D01*
X0302000Y0039200D02*
X0304700Y0036500D01*
X0315500Y0036500D01*
X0320000Y0041000D01*
X0320501Y0041800D01*
X0248900Y0027500D02*
X0230900Y0027500D01*
X0229100Y0029300D01*
X0176900Y0194900D02*
X0174200Y0194900D01*
X0173965Y0195215D01*
X0188600Y0206600D02*
X0203000Y0206600D01*
X0207500Y0227300D02*
X0182300Y0252500D01*
X0207500Y0227300D02*
X0211100Y0227300D01*
X0211800Y0226800D01*
X0091400Y0248000D02*
X0091400Y0256100D01*
X0091800Y0256800D01*
X0086000Y0269600D02*
X0076100Y0259700D01*
X0086000Y0269600D02*
X0086000Y0286700D01*
X0086249Y0286800D01*
X0065300Y0285800D02*
X0058100Y0278600D01*
X0058100Y0236300D01*
D15*
X0058100Y0236300D03*
X0115700Y0203000D03*
X0131000Y0234500D03*
X0185900Y0266000D03*
X0185900Y0274100D03*
X0223700Y0302900D03*
X0233600Y0302900D03*
X0252500Y0263300D03*
X0306500Y0250700D03*
X0328100Y0243500D03*
X0327200Y0266900D03*
X0275900Y0219200D03*
X0323600Y0215600D03*
X0256100Y0172400D03*
X0260600Y0140900D03*
X0312800Y0118400D03*
X0296600Y0050900D03*
X0292100Y0034700D03*
X0248900Y0027500D03*
X0227300Y0025700D03*
X0193100Y0018500D03*
X0159800Y0022100D03*
X0157100Y0054500D03*
X0191300Y0054500D03*
X0170600Y0112100D03*
X0198500Y0137300D03*
X0202100Y0115700D03*
X0137300Y0148100D03*
X0136400Y0123800D03*
X0097700Y0132800D03*
X0188600Y0206600D03*
M02*
