%
M48
M72
T01C0.02400
T02C0.03150
T03C0.03200
T04C0.04724
T05C0.12598
%
T01
X136400Y123800
X137300Y148100
X97700Y132800
X170600Y112100
X198500Y137300
X202100Y115700
X260600Y140900
X256100Y172400
X275900Y219200
X306500Y250700
X328100Y243500
X327200Y266900
X323600Y215600
X252500Y263300
X233600Y302900
X223700Y302900
X185900Y274100
X185900Y266000
X131000Y234500
X115700Y203000
X58100Y236300
X188600Y206600
X312800Y118400
X296600Y50900
X292100Y34700
X248900Y27500
X227300Y25700
X193100Y18500
X159800Y22100
X157100Y54500
X191300Y54500
T02
X193965Y132715
X203965Y132715
X213965Y132715
X223965Y132715
X233965Y132715
X243965Y132715
X253965Y132715
X263965Y132715
X273965Y132715
X283965Y132715
X293965Y132715
X293965Y195215
X283965Y195215
X273965Y195215
X263965Y195215
X253965Y195215
X243965Y195215
X233965Y195215
X223965Y195215
X213965Y195215
X203965Y195215
X193965Y195215
X183965Y195215
X173965Y195215
X163965Y195215
X153965Y195215
X143965Y195215
X133965Y195215
X123965Y195215
X113965Y195215
X103965Y195215
X103965Y132715
X113965Y132715
X123965Y132715
X133965Y132715
X143965Y132715
X153965Y132715
X163965Y132715
X173965Y132715
X183965Y132715
T03
X186800Y101800
X196800Y101800
X211800Y101800
X221800Y101800
X231800Y101800
X246800Y101800
X256800Y101800
X266800Y101800
X281800Y101800
X291800Y101800
X301800Y101800
X316800Y101800
X326800Y101800
X336800Y101800
X351800Y96800
X351800Y76800
X336800Y71800
X326800Y71800
X316800Y71800
X301800Y71800
X291800Y71800
X281800Y71800
X266800Y71800
X256800Y71800
X246800Y71800
X231800Y71800
X221800Y71800
X211800Y71800
X196800Y71800
X186800Y71800
X176800Y71800
X161800Y71800
X151800Y71800
X141800Y71800
X126800Y71800
X116800Y71800
X106800Y71800
X91800Y71800
X81800Y71800
X71800Y71800
X71800Y101800
X81800Y101800
X91800Y101800
X106800Y101800
X116800Y101800
X126800Y101800
X141800Y101800
X151800Y101800
X161800Y101800
X176800Y101800
X81800Y131800
X81800Y141800
X81800Y151800
X81800Y176800
X81800Y186800
X81800Y196800
X81800Y226800
X91800Y226800
X106800Y226800
X116800Y226800
X126800Y226800
X141800Y226800
X151800Y226800
X161800Y226800
X176800Y226800
X186800Y226800
X196800Y226800
X211800Y226800
X221800Y226800
X231800Y226800
X246800Y226800
X256800Y226800
X266800Y226800
X281800Y226800
X291800Y226800
X301800Y226800
X316800Y226800
X326800Y226800
X336800Y226800
X351800Y216800
X346800Y196800
X346800Y186800
X346800Y176800
X346800Y151800
X346800Y141800
X346800Y131800
X316800Y131800
X316800Y141800
X316800Y151800
X316800Y176800
X316800Y186800
X316800Y196800
X316800Y256800
X326800Y256800
X336800Y256800
X351800Y256800
X301800Y256800
X291800Y256800
X281800Y256800
X266800Y256800
X256800Y256800
X246800Y256800
X231800Y256800
X221800Y256800
X211800Y256800
X196800Y256800
X186800Y256800
X176800Y256800
X161800Y256800
X151800Y256800
X141800Y256800
X126800Y256800
X116800Y256800
X106800Y256800
X91800Y256800
X81800Y256800
X71800Y256800
X71800Y226800
T04
X49300Y211190
X49300Y197410
X49300Y183631
X49300Y169851
X49300Y156072
X49300Y142292
X49300Y128513
X49300Y114733
X44910Y41800
X58690Y41800
X72469Y41800
X86249Y41800
X100028Y41800
X113808Y41800
X127587Y41800
X141367Y41800
X155146Y41800
X168926Y41800
X182706Y41800
X196485Y41800
X210265Y41800
X224044Y41800
X237824Y41800
X251603Y41800
X265383Y41800
X279162Y41800
X292942Y41800
X306721Y41800
X320501Y41800
X334280Y41800
X348060Y41800
X361839Y41800
X361839Y286800
X348060Y286800
X334280Y286800
X320501Y286800
X306721Y286800
X292942Y286800
X279162Y286800
X265383Y286800
X251603Y286800
X237824Y286800
X224044Y286800
X210265Y286800
X196485Y286800
X182706Y286800
X168926Y286800
X155146Y286800
X141367Y286800
X127587Y286800
X113808Y286800
X100028Y286800
X86249Y286800
X72469Y286800
X58690Y286800
X44910Y286800
T05
X21800Y21800
X21800Y306800
X381800Y306800
X381800Y21800
M30
